<svg width="48" height="23" viewBox="0 0 48 23" fill="none" xmlns="http://www.w3.org/2000/svg">
<path d="M17.28 18.24H4.296C2.952 18.24 2.208 17.472 2.208 16.344C2.208 15.216 2.952 14.448 4.296 14.448H19.152C22.152 14.448 22.704 15.264 22.704 18.144V22.824H17.856V18.816C17.856 18.456 17.664 18.24 17.28 18.24ZM15.048 13.056H2.712C1.584 13.056 0.936 12.144 0.936 11.28C0.936 10.416 1.488 9.6 2.712 9.6H3.144V7.584C3.144 6.168 4.104 5.568 5.424 5.568C6.744 5.568 7.704 6.168 7.704 7.584V9.6H9.672V7.584C9.672 6.168 10.632 5.568 11.952 5.568C13.272 5.568 14.232 6.168 14.232 7.584V9.6H15.048C16.272 9.6 16.824 10.416 16.824 11.28C16.824 12.144 16.176 13.056 15.048 13.056ZM17.736 13.512V2.664C17.736 1.104 18.888 0.287999 20.16 0.287999C21.408 0.287999 22.584 1.128 22.584 2.664V13.512H17.736ZM14.232 4.728H3.024C1.896 4.728 1.248 3.768 1.248 2.856C1.248 1.944 1.8 0.983999 3.024 0.983999H14.232C15.456 0.983999 16.008 1.944 16.008 2.856C16.008 3.768 15.36 4.728 14.232 4.728ZM45.866 22.824H28.586C26.618 22.824 25.61 21.576 25.61 19.992V19.848C25.61 18.216 26.594 17.256 28.586 17.256H41.474V16.824C41.474 16.536 41.378 16.464 41.042 16.464H27.122C26.282 16.464 25.85 15.816 25.85 15.216C25.85 14.616 26.21 13.944 27.122 13.944H43.826C45.818 13.944 46.418 14.64 46.418 16.056V19.44H31.178C30.866 19.44 30.746 19.656 30.746 19.848C30.746 20.088 30.866 20.232 31.178 20.232H45.866C46.754 20.232 47.09 20.904 47.09 21.552C47.09 22.104 46.778 22.824 45.866 22.824ZM27.218 6.288H29.114C29.138 4.824 30.122 4.128 31.586 4.128C33.002 4.128 33.986 4.848 34.01 6.288H38.33C38.354 4.824 39.338 4.128 40.802 4.128C42.218 4.128 43.202 4.848 43.226 6.288H45.17C46.394 6.288 46.802 7.032 46.802 7.776C46.802 8.616 46.37 9.312 45.17 9.312H27.218C26.018 9.312 25.538 8.616 25.538 7.776C25.538 7.032 25.994 6.288 27.218 6.288ZM26.618 10.104H45.698C46.946 10.104 47.402 10.848 47.402 11.64C47.402 12.504 46.922 13.176 45.698 13.176H26.618C25.418 13.176 24.938 12.504 24.938 11.64C24.938 10.848 25.394 10.104 26.618 10.104ZM27.53 0.623999H44.762C45.962 0.623999 46.442 1.368 46.442 2.136C46.442 3 45.938 3.696 44.762 3.696H27.53C26.354 3.696 25.898 3 25.898 2.136C25.898 1.368 26.33 0.623999 27.53 0.623999Z" fill="#DC2626"/>
</svg>
