<svg width="505" height="236" viewBox="0 0 505 236" fill="none" xmlns="http://www.w3.org/2000/svg">
<rect width="505" height="236" fill="white"/>
<path d="M21.7777 210.788C21.7777 206.9 24.2257 203.732 29.2297 203.732H44.4577C49.3897 203.732 51.9097 206.828 51.9097 210.788C51.9097 214.748 49.3897 217.844 44.4577 217.844H29.2297C24.2257 217.844 21.7777 214.676 21.7777 210.788ZM25.7377 184.976H37.8697C39.7417 184.976 40.3897 186.488 40.3897 187.784C40.3897 189.008 39.7057 190.52 37.8697 190.52H28.7257C28.0417 190.52 27.7177 190.772 27.7177 191.384V195.38C27.7177 196.064 28.0417 196.28 28.7257 196.28H39.2377C41.1097 196.28 41.7937 197.756 41.7937 198.98C41.7937 200.276 41.1097 201.752 39.2377 201.752H25.7377C21.7417 201.752 20.6257 200.456 20.6257 196.748V189.98C20.6257 186.272 21.7417 184.976 25.7377 184.976ZM44.2057 202.868V187.496C44.2057 185.156 45.8617 183.932 47.7697 183.932C49.6417 183.932 51.3337 185.192 51.3337 187.496V190.448H52.4497C54.6457 190.448 55.2937 192.104 55.2937 193.544C55.2937 195.02 54.6097 196.64 52.4497 196.64H51.3337V202.868H44.2057ZM29.0857 210.788C29.0857 211.688 29.5537 212.804 31.1377 212.804H42.5497C44.1337 212.804 44.6017 211.688 44.6017 210.788C44.6017 209.888 44.1337 208.772 42.5497 208.772H31.1377C29.5537 208.772 29.0857 209.888 29.0857 210.788ZM57.2737 197.864C60.8737 196.568 63.0697 193.796 63.0697 188.468V187.82C63.0697 185.516 64.9057 184.436 66.8137 184.472C68.6857 184.508 70.3417 185.66 70.3417 187.82V188.468C70.3417 189.512 70.2697 190.52 70.1257 191.456C75.3457 192.14 78.7297 195.56 78.4777 203.264H71.4577C71.7097 199.628 70.6657 197.504 68.2537 197C66.1297 200.816 62.6737 203.048 59.2897 203.588C57.4897 203.876 56.0857 202.976 55.6177 201.572C55.0777 199.952 55.8337 198.368 57.2737 197.864ZM86.2177 217.736H63.5017C59.4697 217.736 58.3897 216.332 58.3897 212.48V208.808C58.3897 206.36 60.0817 205.244 62.0977 205.244C64.1137 205.244 65.6977 206.396 65.6977 208.808V211.256C65.6977 212.048 65.8777 212.156 66.6697 212.156H86.2177C88.4137 212.156 89.2417 213.488 89.2417 214.928C89.2417 216.404 88.3777 217.736 86.2177 217.736ZM81.0337 209.384V187.496C81.0337 185.156 82.7617 183.932 84.6697 183.932C86.5417 183.932 88.3057 185.192 88.3057 187.496V209.384H81.0337ZM94.6777 210.356H112.786C114.982 210.356 115.81 211.868 115.81 213.344C115.81 214.856 114.946 216.332 112.786 216.332H94.6777C92.5177 216.332 91.6177 214.856 91.6177 213.344C91.6177 211.868 92.4817 210.356 94.6777 210.356ZM92.4817 197.108V193.652C92.4817 187.388 97.0897 184.544 102.994 184.544C108.898 184.544 113.47 187.388 113.47 193.652V197.108C113.47 203.372 108.898 206.216 102.994 206.216C97.0897 206.216 92.4817 203.372 92.4817 197.108ZM99.5377 193.4V197.36C99.5377 199.7 101.266 200.564 102.994 200.564C104.722 200.564 106.45 199.7 106.45 197.36V193.4C106.45 191.096 104.722 190.196 102.994 190.196C101.266 190.196 99.5377 191.096 99.5377 193.4ZM124.306 217.736H117.106V187.496C117.106 185.156 118.798 183.932 120.706 183.932C122.614 183.932 124.306 185.156 124.306 187.496V217.736ZM140.336 210.68C144.476 209.996 147.392 208.088 147.392 200.6V192.248C147.392 191.744 147.068 191.348 146.492 191.348H140.984C138.824 191.348 137.96 189.8 137.96 188.324C137.96 186.884 138.788 185.3 140.984 185.3H148.58C152.648 185.3 154.016 186.524 154.016 190.196V197.252H156.536V186.992C156.536 184.976 157.94 183.932 159.596 183.932C161.216 183.932 162.8 185.012 162.8 186.992V217.736H156.536V203.084H153.908C153.08 212.768 147.5 216.152 141.308 216.62C139.4 216.764 137.672 215.864 137.6 213.884C137.528 212.192 138.392 211.004 140.336 210.68ZM164.564 217.736V186.992C164.564 184.976 166.112 183.932 167.768 183.932C169.388 183.932 170.972 185.012 170.972 186.992V217.736H164.564ZM194.156 188.252C194.12 189.368 193.94 190.484 193.652 191.564C199.736 191.708 205.964 195.92 206.648 205.1H199.34C198.692 200.204 195.128 197.252 190.808 197.396C187.532 201.896 182.384 204.992 177.668 205.1C175.904 205.136 174.428 204.092 174.248 202.328C174.068 200.6 175.004 199.196 176.84 198.8C181.592 197.756 185.948 193.724 186.704 187.676C186.992 185.408 188.756 184.292 190.772 184.436C192.86 184.616 194.228 185.984 194.156 188.252ZM176.768 210.932H204.272C206.504 210.932 207.368 212.516 207.368 213.992C207.368 215.504 206.468 217.016 204.272 217.016H176.768C174.572 217.016 173.672 215.504 173.672 213.992C173.672 212.516 174.536 210.932 176.768 210.932ZM212.768 210.968H240.272C242.504 210.968 243.368 212.516 243.368 213.992C243.368 215.504 242.468 217.016 240.272 217.016H212.768C210.572 217.016 209.672 215.504 209.672 213.992C209.672 212.516 210.536 210.968 212.768 210.968ZM217.016 185.012H238.832C240.848 185.012 241.604 186.488 241.604 187.82C241.604 189.188 240.812 190.592 238.832 190.592H219.68C218.96 190.592 218.6 190.88 218.6 191.528V192.932H238.616C240.632 192.932 241.388 194.336 241.388 195.632C241.388 196.964 240.596 198.332 238.616 198.332H218.6V199.7C218.6 200.42 218.96 200.672 219.68 200.672H239.408C241.424 200.672 242.18 202.112 242.18 203.444C242.18 204.812 241.388 206.216 239.408 206.216H217.016C212.84 206.216 211.292 204.488 211.292 200.6V190.628C211.292 186.74 212.84 185.012 217.016 185.012ZM276.488 197.612H251.396C248.444 197.612 246.932 195.74 246.932 193.364V193.148C246.932 190.7 248.408 189.332 251.396 189.332H270.116V188.72C270.116 188.288 269.972 188.18 269.468 188.18H249.128C247.868 188.18 247.22 187.172 247.22 186.272C247.22 185.372 247.76 184.328 249.128 184.328H273.644C276.632 184.328 277.532 185.372 277.532 187.496V192.608H255.284C254.816 192.608 254.636 192.896 254.636 193.184C254.636 193.544 254.816 193.724 255.284 193.724H276.488C277.82 193.724 278.324 194.732 278.324 195.704C278.324 196.532 277.856 197.612 276.488 197.612ZM248.192 198.656H276.812C278.684 198.656 279.368 199.772 279.368 200.96C279.368 202.256 278.648 203.264 276.812 203.264H248.192C246.392 203.264 245.672 202.256 245.672 200.96C245.672 199.772 246.356 198.656 248.192 198.656ZM277.064 217.736H251.144C248.192 217.736 246.68 215.864 246.68 213.488V213.272C246.68 210.824 248.156 209.384 251.144 209.384H270.476V208.736C270.476 208.304 270.332 208.196 269.828 208.196H248.948C247.688 208.196 247.04 207.224 247.04 206.324C247.04 205.424 247.58 204.416 248.948 204.416H274.004C276.992 204.416 277.892 205.46 277.892 207.584V212.66H255.032C254.564 212.66 254.384 212.984 254.384 213.272C254.384 213.632 254.564 213.848 255.032 213.848H277.064C278.396 213.848 278.9 214.856 278.9 215.828C278.9 216.656 278.432 217.736 277.064 217.736ZM297.629 186.992C296.837 187.424 296.333 188.252 296.333 189.296V189.332C298.313 189.512 299.645 190.808 299.645 192.824C299.645 195.02 298.097 196.388 295.829 196.388C293.561 196.388 292.013 194.444 292.013 192.464V192.14C292.013 188.324 293.777 185.552 296.297 184.58C296.909 184.364 297.557 184.22 298.133 184.292C298.745 184.364 299.465 184.688 299.393 185.66C299.357 186.236 299.033 186.596 298.385 186.74C298.133 186.812 297.917 186.848 297.629 186.992ZM307.241 186.992C306.449 187.424 305.945 188.252 305.945 189.296V189.332C307.925 189.512 309.257 190.808 309.257 192.824C309.257 195.02 307.709 196.388 305.441 196.388C303.173 196.388 301.625 194.444 301.625 192.464V192.14C301.625 188.324 303.389 185.552 305.909 184.58C306.521 184.364 307.169 184.22 307.745 184.292C308.357 184.364 309.077 184.688 309.005 185.66C308.969 186.236 308.645 186.596 307.997 186.74C307.745 186.812 307.529 186.848 307.241 186.992ZM336.568 210.86H317.092C315.076 210.86 313.96 209.708 313.96 208.016C313.96 206.324 315.076 205.172 317.092 205.172H339.376C343.876 205.172 344.704 206.396 344.704 210.716V217.736H337.432V211.724C337.432 211.184 337.144 210.86 336.568 210.86ZM333.22 203.084H314.716C313.024 203.084 312.052 201.716 312.052 200.42C312.052 199.124 312.88 197.9 314.716 197.9H315.364V194.876C315.364 192.752 316.804 191.852 318.784 191.852C320.764 191.852 322.204 192.752 322.204 194.876V197.9H325.156V194.876C325.156 192.752 326.596 191.852 328.576 191.852C330.556 191.852 331.996 192.752 331.996 194.876V197.9H333.22C335.056 197.9 335.884 199.124 335.884 200.42C335.884 201.716 334.912 203.084 333.22 203.084ZM337.252 203.768V187.496C337.252 185.156 338.98 183.932 340.888 183.932C342.76 183.932 344.524 185.192 344.524 187.496V203.768H337.252ZM331.996 190.592H315.184C313.492 190.592 312.52 189.152 312.52 187.784C312.52 186.416 313.348 184.976 315.184 184.976H331.996C333.832 184.976 334.66 186.416 334.66 187.784C334.66 189.152 333.688 190.592 331.996 190.592ZM359.68 193.616C360.472 193.184 360.976 192.356 360.976 191.312C358.96 191.132 357.664 189.836 357.664 187.784C357.664 185.588 359.212 184.22 361.48 184.22C363.748 184.22 365.296 186.164 365.296 188.144V188.468C365.296 192.284 363.532 195.056 361.012 196.028C360.4 196.244 359.752 196.388 359.176 196.316C358.564 196.244 357.844 195.92 357.916 194.948C357.952 194.372 358.276 194.012 358.924 193.868C359.176 193.796 359.392 193.76 359.68 193.616ZM350.068 193.616C350.86 193.184 351.364 192.356 351.364 191.312C349.348 191.132 348.052 189.836 348.052 187.784C348.052 185.588 349.6 184.22 351.868 184.22C354.136 184.22 355.684 186.164 355.684 188.144V188.468C355.684 192.284 353.92 195.056 351.4 196.028C350.788 196.244 350.14 196.388 349.564 196.316C348.952 196.244 348.232 195.92 348.304 194.948C348.34 194.372 348.664 194.012 349.312 193.868C349.564 193.796 349.78 193.76 350.068 193.616ZM378.748 183.824C381.016 183.824 382.456 185.156 382.456 187.46V187.784H387.496C389.26 187.784 390.196 189.08 390.196 190.592C390.196 192.104 389.224 193.4 387.496 193.4H387.424C387.82 194.336 388.072 195.38 388.072 196.604V207.8C388.072 214.136 384.04 217.052 378.748 217.052C373.492 217.052 369.46 214.136 369.46 207.8V196.604C369.46 195.38 369.676 194.336 370.072 193.4C368.344 193.4 367.372 192.104 367.372 190.592C367.372 189.08 368.272 187.784 370.036 187.784H375.04V187.46C375.04 185.156 376.48 183.824 378.748 183.824ZM392.392 217.736V187.424C392.392 185.12 394.084 183.932 395.956 183.932C397.792 183.932 399.52 185.156 399.52 187.424V196.532H400.708C402.904 196.532 403.552 198.224 403.552 199.664C403.552 201.14 402.867 202.796 400.708 202.796H399.52V217.736H392.392ZM378.748 211.22C380.152 211.22 381.376 210.176 381.376 207.872V196.316C381.376 193.976 380.188 193.112 378.748 193.112C377.344 193.112 376.156 193.976 376.156 196.316V207.872C376.156 210.176 377.38 211.22 378.748 211.22ZM404.056 210.464C407.836 207.08 408.808 202.58 408.808 192.032V188.396C408.808 186.092 410.284 185.012 412.156 185.012C413.992 185.012 415.54 186.2 415.54 188.396V191.996C415.54 194.876 415.396 197.504 415.108 199.88C419.572 202.004 421.984 206.288 421.408 215.684H414.856C415.432 211.436 415 208.592 413.704 206.828C412.444 211.004 410.572 213.812 408.376 215.324C407.008 216.26 404.668 216.62 403.408 215.108C402.291 213.776 402.615 211.724 404.056 210.464ZM422.848 217.736V200.204H419.896C417.736 200.204 416.872 198.584 416.872 197.108C416.872 195.668 417.7 194.012 419.896 194.012H422.848V186.992C422.848 184.976 424.252 183.932 425.908 183.932C427.528 183.932 429.04 185.012 429.04 186.992V217.736H422.848ZM430.732 217.736V186.992C430.732 184.976 432.28 183.932 433.936 183.932C435.556 183.932 437.14 185.012 437.14 186.992V217.736H430.732ZM440.848 194.516V194.084C440.848 189.152 444.16 184.832 450.208 184.832H463.168C469.216 184.832 472.528 189.152 472.528 194.084V194.516C472.528 199.448 469.216 203.732 463.168 203.732H450.208C444.16 203.732 440.848 199.448 440.848 194.516ZM442.864 211.256H446.356V207.98C446.356 205.64 448.012 204.92 449.92 204.92C451.792 204.92 453.484 205.676 453.484 207.98V211.256H459.892V207.98C459.892 205.64 461.548 204.92 463.456 204.92C465.328 204.92 467.02 205.676 467.02 207.98V211.256H470.512C472.708 211.256 473.536 212.696 473.536 214.136C473.536 215.612 472.672 217.016 470.512 217.016H442.864C440.704 217.016 439.84 215.612 439.84 214.136C439.84 212.696 440.668 211.256 442.864 211.256ZM465.04 194.588V194.012C465.04 192.104 463.564 190.7 461.188 190.7H452.188C449.812 190.7 448.336 192.104 448.336 194.012V194.588C448.336 196.496 449.812 197.9 452.188 197.9H461.188C463.564 197.9 465.04 196.496 465.04 194.588ZM484.3 206.792H476.956V187.748C476.956 185.408 478.72 184.184 480.628 184.184C482.5 184.184 484.3 185.444 484.3 187.748V206.792ZM476.776 212.12C476.776 209.888 478.216 208.484 480.628 208.484C483.04 208.484 484.48 209.924 484.48 212.12C484.48 214.316 483.04 215.756 480.628 215.756C478.216 215.756 476.776 214.352 476.776 212.12Z" fill="#F87171"/>
<path d="M216.66 131.78H147.412C140.244 131.78 136.276 127.684 136.276 121.668C136.276 115.652 140.244 111.556 147.412 111.556H226.644C242.644 111.556 245.588 115.908 245.588 131.268V156.228H219.732V134.852C219.732 132.932 218.708 131.78 216.66 131.78ZM204.756 104.132H138.964C132.948 104.132 129.492 99.268 129.492 94.66C129.492 90.052 132.436 85.7 138.964 85.7H141.268V74.948C141.268 67.396 146.388 64.196 153.428 64.196C160.468 64.196 165.588 67.396 165.588 74.948V85.7H176.084V74.948C176.084 67.396 181.204 64.196 188.244 64.196C195.284 64.196 200.404 67.396 200.404 74.948V85.7H204.756C211.284 85.7 214.228 90.052 214.228 94.66C214.228 99.268 210.772 104.132 204.756 104.132ZM219.092 106.564V48.708C219.092 40.388 225.236 36.036 232.02 36.036C238.676 36.036 244.948 40.516 244.948 48.708V106.564H219.092ZM200.404 59.716H140.628C134.612 59.716 131.156 54.596 131.156 49.732C131.156 44.868 134.1 39.748 140.628 39.748H200.404C206.932 39.748 209.876 44.868 209.876 49.732C209.876 54.596 206.42 59.716 200.404 59.716ZM368.382 156.228H276.222C265.726 156.228 260.35 149.572 260.35 141.124V140.356C260.35 131.652 265.598 126.532 276.222 126.532H344.958V124.228C344.958 122.692 344.446 122.308 342.654 122.308H268.414C263.934 122.308 261.63 118.852 261.63 115.652C261.63 112.452 263.55 108.868 268.414 108.868H357.502C368.126 108.868 371.326 112.58 371.326 120.132V138.18H290.046C288.382 138.18 287.742 139.332 287.742 140.356C287.742 141.636 288.382 142.404 290.046 142.404H368.382C373.118 142.404 374.91 145.988 374.91 149.444C374.91 152.388 373.246 156.228 368.382 156.228ZM268.926 68.036H279.038C279.166 60.228 284.414 56.516 292.222 56.516C299.774 56.516 305.022 60.356 305.15 68.036H328.19C328.318 60.228 333.566 56.516 341.374 56.516C348.926 56.516 354.174 60.356 354.302 68.036H364.67C371.198 68.036 373.374 72.004 373.374 75.972C373.374 80.452 371.07 84.164 364.67 84.164H268.926C262.526 84.164 259.966 80.452 259.966 75.972C259.966 72.004 262.398 68.036 268.926 68.036ZM265.726 88.388H367.486C374.142 88.388 376.574 92.356 376.574 96.58C376.574 101.188 374.014 104.772 367.486 104.772H265.726C259.326 104.772 256.766 101.188 256.766 96.58C256.766 92.356 259.198 88.388 265.726 88.388ZM270.59 37.828H362.494C368.894 37.828 371.454 41.796 371.454 45.892C371.454 50.5 368.766 54.212 362.494 54.212H270.59C264.318 54.212 261.886 50.5 261.886 45.892C261.886 41.796 264.19 37.828 270.59 37.828Z" fill="#DC2626"/>
</svg>
