<svg width="30" height="30" viewBox="0 0 30 30" fill="none" xmlns="http://www.w3.org/2000/svg">
<mask id="mask0_355_9957" style="mask-type:alpha" maskUnits="userSpaceOnUse" x="0" y="0" width="30" height="30">
<rect width="30" height="30" fill="#D9D9D9"/>
</mask>
<g mask="url(#mask0_355_9957)">
<path d="M5.0625 13.75H8.625C8.5 12.9583 8.26042 12.2188 7.90625 11.5312C7.55208 10.8438 7.10417 10.2292 6.5625 9.6875C6.1875 10.2917 5.86979 10.9323 5.60938 11.6094C5.34896 12.2865 5.16667 13 5.0625 13.75ZM21.375 13.75H24.9375C24.8333 13 24.651 12.2865 24.3906 11.6094C24.1302 10.9323 23.8125 10.2917 23.4375 9.6875C22.8958 10.2292 22.4479 10.8438 22.0938 11.5312C21.7396 12.2188 21.5 12.9583 21.375 13.75ZM6.5625 20.3125C7.10417 19.7708 7.55208 19.1562 7.90625 18.4688C8.26042 17.7813 8.5 17.0417 8.625 16.25H5.0625C5.16667 17 5.34896 17.7135 5.60938 18.3906C5.86979 19.0677 6.1875 19.7083 6.5625 20.3125ZM23.4375 20.3125C23.8125 19.7083 24.1302 19.0677 24.3906 18.3906C24.651 17.7135 24.8333 17 24.9375 16.25H21.375C21.5 17.0417 21.7396 17.7813 22.0938 18.4688C22.4479 19.1562 22.8958 19.7708 23.4375 20.3125ZM11.1875 13.75H13.75V5.0625C12.6458 5.22917 11.6198 5.53646 10.6719 5.98438C9.72396 6.43229 8.875 7.02083 8.125 7.75C8.9375 8.54167 9.60938 9.44271 10.1406 10.4531C10.6719 11.4635 11.0208 12.5625 11.1875 13.75ZM16.25 13.75H18.8125C18.9792 12.5625 19.3281 11.4635 19.8594 10.4531C20.3906 9.44271 21.0625 8.54167 21.875 7.75C21.125 7.02083 20.276 6.43229 19.3281 5.98438C18.3802 5.53646 17.3542 5.22917 16.25 5.0625V13.75ZM13.75 24.9375V16.25H11.1875C11.0208 17.4375 10.6719 18.5365 10.1406 19.5469C9.60938 20.5573 8.9375 21.4583 8.125 22.25C8.875 22.9792 9.72396 23.5677 10.6719 24.0156C11.6198 24.4635 12.6458 24.7708 13.75 24.9375ZM16.25 24.9375C17.3542 24.7708 18.3802 24.4635 19.3281 24.0156C20.276 23.5677 21.125 22.9792 21.875 22.25C21.0625 21.4583 20.3906 20.5573 19.8594 19.5469C19.3281 18.5365 18.9792 17.4375 18.8125 16.25H16.25V24.9375ZM15 27.5C13.2708 27.5 11.6458 27.1719 10.125 26.5156C8.60417 25.8594 7.28125 24.9688 6.15625 23.8438C5.03125 22.7188 4.14063 21.3958 3.48438 19.875C2.82812 18.3542 2.5 16.7292 2.5 15C2.5 13.2708 2.82812 11.6458 3.48438 10.125C4.14063 8.60417 5.03125 7.28125 6.15625 6.15625C7.28125 5.03125 8.60417 4.14063 10.125 3.48438C11.6458 2.82812 13.2708 2.5 15 2.5C16.7292 2.5 18.3542 2.82812 19.875 3.48438C21.3958 4.14063 22.7188 5.03125 23.8438 6.15625C24.9688 7.28125 25.8594 8.60417 26.5156 10.125C27.1719 11.6458 27.5 13.2708 27.5 15C27.5 16.7292 27.1719 18.3542 26.5156 19.875C25.8594 21.3958 24.9688 22.7188 23.8438 23.8438C22.7188 24.9688 21.3958 25.8594 19.875 26.5156C18.3542 27.1719 16.7292 27.5 15 27.5Z" fill="black"/>
</g>
</svg>
