<svg width="30" height="30" viewBox="0 0 30 30" fill="none" xmlns="http://www.w3.org/2000/svg">
<path d="M20 12.9947C20 13.2599 19.8946 13.5142 19.7071 13.7018C19.5196 13.8893 19.2652 13.9947 19 13.9947H11C10.7348 13.9947 10.4804 13.8893 10.2929 13.7018C10.1054 13.5142 10 13.2599 10 12.9947C10 12.7295 10.1054 12.4751 10.2929 12.2876C10.4804 12.1 10.7348 11.9947 11 11.9947H19C19.2652 11.9947 19.5196 12.1 19.7071 12.2876C19.8946 12.4751 20 12.7295 20 12.9947ZM19 15.9947H11C10.7348 15.9947 10.4804 16.1 10.2929 16.2876C10.1054 16.4751 10 16.7295 10 16.9947C10 17.2599 10.1054 17.5142 10.2929 17.7018C10.4804 17.8893 10.7348 17.9947 11 17.9947H19C19.2652 17.9947 19.5196 17.8893 19.7071 17.7018C19.8946 17.5142 20 17.2599 20 16.9947C20 16.7295 19.8946 16.4751 19.7071 16.2876C19.5196 16.1 19.2652 15.9947 19 15.9947ZM28 14.9947C28.0005 17.2391 27.4199 19.4454 26.3147 21.3989C25.2095 23.3523 23.6174 24.9864 21.6934 26.142C19.7693 27.2975 17.5788 27.9353 15.3352 27.9932C13.0915 28.0511 10.8711 27.527 8.89 26.4722L4.63375 27.8909C4.28136 28.0084 3.9032 28.0255 3.54166 27.9402C3.18012 27.8549 2.84948 27.6705 2.58681 27.4079C2.32414 27.1452 2.13982 26.8146 2.0545 26.453C1.96918 26.0915 1.98623 25.7133 2.10375 25.3609L3.5225 21.1047C2.59519 19.3612 2.07725 17.4294 2.008 15.4559C1.93875 13.4824 2.32001 11.519 3.12284 9.71484C3.92567 7.91067 5.12897 6.3131 6.6414 5.04341C8.15383 3.77371 9.93564 2.86526 11.8516 2.38701C13.7675 1.90876 15.7672 1.87328 17.699 2.28325C19.6307 2.69323 21.4436 3.5379 23.0001 4.75313C24.5566 5.96837 25.8158 7.52223 26.6822 9.29679C27.5485 11.0713 27.9992 13.0199 28 14.9947ZM26 14.9947C25.9995 13.3073 25.6109 11.6427 24.8641 10.1296C24.1174 8.61649 23.0325 7.29546 21.6935 6.26871C20.3545 5.24196 18.7973 4.53701 17.1422 4.2084C15.4872 3.8798 13.7787 3.93634 12.149 4.37366C10.5194 4.81099 9.01212 5.61736 7.74394 6.73041C6.47577 7.84345 5.48065 9.23333 4.83558 10.7925C4.1905 12.3517 3.91277 14.0383 4.02387 15.722C4.13496 17.4057 4.63191 19.0413 5.47625 20.5022C5.54712 20.6248 5.59112 20.7611 5.60534 20.9021C5.61956 21.043 5.60368 21.1853 5.55875 21.3197L4 25.9947L8.675 24.4359C8.77683 24.4012 8.88367 24.3835 8.99125 24.3834C9.16688 24.3837 9.33933 24.4303 9.49125 24.5184C11.1635 25.4859 13.0611 25.996 14.9931 25.9972C16.925 25.9984 18.8232 25.4908 20.4967 24.5254C22.1702 23.56 23.5599 22.1708 24.526 20.4977C25.492 18.8247 26.0004 16.9266 26 14.9947Z" fill="black"/>
</svg>
