<svg width="30" height="30" viewBox="0 0 30 30" fill="none" xmlns="http://www.w3.org/2000/svg">
<mask id="mask0_355_9966" style="mask-type:alpha" maskUnits="userSpaceOnUse" x="0" y="0" width="30" height="30">
<rect width="30" height="30" fill="#D9D9D9"/>
</mask>
<g mask="url(#mask0_355_9966)">
<path d="M12.5 15C11.125 15 9.94792 14.5104 8.96875 13.5312C7.98958 12.5521 7.5 11.375 7.5 10C7.5 8.625 7.98958 7.44792 8.96875 6.46875C9.94792 5.48958 11.125 5 12.5 5C13.875 5 15.0521 5.48958 16.0312 6.46875C17.0104 7.44792 17.5 8.625 17.5 10C17.5 11.375 17.0104 12.5521 16.0312 13.5312C15.0521 14.5104 13.875 15 12.5 15ZM2.5 25V21.5C2.5 20.8125 2.67708 20.1667 3.03125 19.5625C3.38542 18.9583 3.875 18.5 4.5 18.1875C5.5625 17.6458 6.76042 17.1875 8.09375 16.8125C9.42708 16.4375 10.8958 16.25 12.5 16.25H12.9375C13.0625 16.25 13.1875 16.2708 13.3125 16.3125C13.1458 16.6875 13.0052 17.0781 12.8906 17.4844C12.776 17.8906 12.6875 18.3125 12.625 18.75H12.5C11.0208 18.75 9.69271 18.9375 8.51562 19.3125C7.33854 19.6875 6.375 20.0625 5.625 20.4375C5.4375 20.5417 5.28646 20.6875 5.17188 20.875C5.05729 21.0625 5 21.2708 5 21.5V22.5H12.875C13 22.9375 13.1667 23.3698 13.375 23.7969C13.5833 24.224 13.8125 24.625 14.0625 25H2.5ZM20 26.25L19.625 24.375C19.375 24.2708 19.1406 24.1615 18.9219 24.0469C18.7031 23.9323 18.4792 23.7917 18.25 23.625L16.4375 24.1875L15.1875 22.0625L16.625 20.8125C16.5833 20.5208 16.5625 20.25 16.5625 20C16.5625 19.75 16.5833 19.4792 16.625 19.1875L15.1875 17.9375L16.4375 15.8125L18.25 16.375C18.4792 16.2083 18.7031 16.0677 18.9219 15.9531C19.1406 15.8385 19.375 15.7292 19.625 15.625L20 13.75H22.5L22.875 15.625C23.125 15.7292 23.3594 15.8438 23.5781 15.9688C23.7969 16.0938 24.0208 16.25 24.25 16.4375L26.0625 15.8125L27.3125 18L25.875 19.25C25.9167 19.5 25.9375 19.7604 25.9375 20.0313C25.9375 20.3021 25.9167 20.5625 25.875 20.8125L27.3125 22.0625L26.0625 24.1875L24.25 23.625C24.0208 23.7917 23.7969 23.9323 23.5781 24.0469C23.3594 24.1615 23.125 24.2708 22.875 24.375L22.5 26.25H20ZM21.25 22.5C21.9375 22.5 22.526 22.2552 23.0156 21.7656C23.5052 21.276 23.75 20.6875 23.75 20C23.75 19.3125 23.5052 18.724 23.0156 18.2344C22.526 17.7448 21.9375 17.5 21.25 17.5C20.5625 17.5 19.974 17.7448 19.4844 18.2344C18.9948 18.724 18.75 19.3125 18.75 20C18.75 20.6875 18.9948 21.276 19.4844 21.7656C19.974 22.2552 20.5625 22.5 21.25 22.5ZM12.5 12.5C13.1875 12.5 13.776 12.2552 14.2656 11.7656C14.7552 11.276 15 10.6875 15 10C15 9.3125 14.7552 8.72396 14.2656 8.23438C13.776 7.74479 13.1875 7.5 12.5 7.5C11.8125 7.5 11.224 7.74479 10.7344 8.23438C10.2448 8.72396 10 9.3125 10 10C10 10.6875 10.2448 11.276 10.7344 11.7656C11.224 12.2552 11.8125 12.5 12.5 12.5Z" fill="black"/>
</g>
</svg>
