<svg width="30" height="30" viewBox="0 0 30 30" fill="none" xmlns="http://www.w3.org/2000/svg">
<mask id="mask0_355_9963" style="mask-type:alpha" maskUnits="userSpaceOnUse" x="0" y="0" width="30" height="30">
<rect width="30" height="30" fill="#D9D9D9"/>
</mask>
<g mask="url(#mask0_355_9963)">
<path d="M0 22.5V20.5312C0 19.6354 0.458333 18.9062 1.375 18.3438C2.29167 17.7812 3.5 17.5 5 17.5C5.27083 17.5 5.53125 17.5052 5.78125 17.5156C6.03125 17.526 6.27083 17.5521 6.5 17.5938C6.20833 18.0312 5.98958 18.4896 5.84375 18.9688C5.69792 19.4479 5.625 19.9479 5.625 20.4688V22.5H0ZM7.5 22.5V20.4688C7.5 19.8021 7.68229 19.1927 8.04688 18.6406C8.41146 18.0885 8.92708 17.6042 9.59375 17.1875C10.2604 16.7708 11.0573 16.4583 11.9844 16.25C12.9115 16.0417 13.9167 15.9375 15 15.9375C16.1042 15.9375 17.1198 16.0417 18.0469 16.25C18.974 16.4583 19.7708 16.7708 20.4375 17.1875C21.1042 17.6042 21.6146 18.0885 21.9688 18.6406C22.3229 19.1927 22.5 19.8021 22.5 20.4688V22.5H7.5ZM24.375 22.5V20.4688C24.375 19.9271 24.3073 19.4167 24.1719 18.9375C24.0365 18.4583 23.8333 18.0104 23.5625 17.5938C23.7917 17.5521 24.026 17.526 24.2656 17.5156C24.5052 17.5052 24.75 17.5 25 17.5C26.5 17.5 27.7083 17.776 28.625 18.3281C29.5417 18.8802 30 19.6146 30 20.5312V22.5H24.375ZM10.1562 20H19.875C19.6667 19.5833 19.0885 19.2188 18.1406 18.9062C17.1927 18.5938 16.1458 18.4375 15 18.4375C13.8542 18.4375 12.8073 18.5938 11.8594 18.9062C10.9115 19.2188 10.3438 19.5833 10.1562 20ZM5 16.25C4.3125 16.25 3.72396 16.0052 3.23438 15.5156C2.74479 15.026 2.5 14.4375 2.5 13.75C2.5 13.0417 2.74479 12.4479 3.23438 11.9688C3.72396 11.4896 4.3125 11.25 5 11.25C5.70833 11.25 6.30208 11.4896 6.78125 11.9688C7.26042 12.4479 7.5 13.0417 7.5 13.75C7.5 14.4375 7.26042 15.026 6.78125 15.5156C6.30208 16.0052 5.70833 16.25 5 16.25ZM25 16.25C24.3125 16.25 23.724 16.0052 23.2344 15.5156C22.7448 15.026 22.5 14.4375 22.5 13.75C22.5 13.0417 22.7448 12.4479 23.2344 11.9688C23.724 11.4896 24.3125 11.25 25 11.25C25.7083 11.25 26.3021 11.4896 26.7813 11.9688C27.2604 12.4479 27.5 13.0417 27.5 13.75C27.5 14.4375 27.2604 15.026 26.7813 15.5156C26.3021 16.0052 25.7083 16.25 25 16.25ZM15 15C13.9583 15 13.0729 14.6354 12.3438 13.9062C11.6146 13.1771 11.25 12.2917 11.25 11.25C11.25 10.1875 11.6146 9.29688 12.3438 8.57812C13.0729 7.85938 13.9583 7.5 15 7.5C16.0625 7.5 16.9531 7.85938 17.6719 8.57812C18.3906 9.29688 18.75 10.1875 18.75 11.25C18.75 12.2917 18.3906 13.1771 17.6719 13.9062C16.9531 14.6354 16.0625 15 15 15ZM15 12.5C15.3542 12.5 15.651 12.3802 15.8906 12.1406C16.1302 11.901 16.25 11.6042 16.25 11.25C16.25 10.8958 16.1302 10.599 15.8906 10.3594C15.651 10.1198 15.3542 10 15 10C14.6458 10 14.349 10.1198 14.1094 10.3594C13.8698 10.599 13.75 10.8958 13.75 11.25C13.75 11.6042 13.8698 11.901 14.1094 12.1406C14.349 12.3802 14.6458 12.5 15 12.5Z" fill="black"/>
</g>
</svg>
