<svg width="25" height="25" viewBox="0 0 25 25" fill="none" xmlns="http://www.w3.org/2000/svg">
<mask id="mask0_2350_7936" style="mask-type:alpha" maskUnits="userSpaceOnUse" x="0" y="0" width="25" height="25">
<rect x="0.372559" y="0.450928" width="24" height="24" fill="#D9D9D9"/>
</mask>
<g mask="url(#mask0_2350_7936)">
<path d="M12.3726 20.4509C11.8226 20.4509 11.3517 20.2551 10.9601 19.8634C10.5684 19.4718 10.3726 19.0009 10.3726 18.4509C10.3726 17.9009 10.5684 17.4301 10.9601 17.0384C11.3517 16.6468 11.8226 16.4509 12.3726 16.4509C12.9226 16.4509 13.3934 16.6468 13.7851 17.0384C14.1767 17.4301 14.3726 17.9009 14.3726 18.4509C14.3726 19.0009 14.1767 19.4718 13.7851 19.8634C13.3934 20.2551 12.9226 20.4509 12.3726 20.4509ZM12.3726 14.4509C11.8226 14.4509 11.3517 14.2551 10.9601 13.8634C10.5684 13.4718 10.3726 13.0009 10.3726 12.4509C10.3726 11.9009 10.5684 11.4301 10.9601 11.0384C11.3517 10.6468 11.8226 10.4509 12.3726 10.4509C12.9226 10.4509 13.3934 10.6468 13.7851 11.0384C14.1767 11.4301 14.3726 11.9009 14.3726 12.4509C14.3726 13.0009 14.1767 13.4718 13.7851 13.8634C13.3934 14.2551 12.9226 14.4509 12.3726 14.4509ZM12.3726 8.45093C11.8226 8.45093 11.3517 8.25509 10.9601 7.86343C10.5684 7.47176 10.3726 7.00093 10.3726 6.45093C10.3726 5.90093 10.5684 5.43009 10.9601 5.03843C11.3517 4.64676 11.8226 4.45093 12.3726 4.45093C12.9226 4.45093 13.3934 4.64676 13.7851 5.03843C14.1767 5.43009 14.3726 5.90093 14.3726 6.45093C14.3726 7.00093 14.1767 7.47176 13.7851 7.86343C13.3934 8.25509 12.9226 8.45093 12.3726 8.45093Z" fill="current"/>
</g>
</svg>
