<svg width="30" height="30" viewBox="0 0 30 30" fill="none" xmlns="http://www.w3.org/2000/svg">
<path d="M15.4688 9.375C14.3562 9.375 13.2687 9.7049 12.3437 10.323C11.4186 10.9411 10.6977 11.8196 10.2719 12.8474C9.84619 13.8752 9.73479 15.0062 9.95183 16.0974C10.1689 17.1885 10.7046 18.1908 11.4913 18.9775C12.2779 19.7641 13.2802 20.2999 14.3714 20.5169C15.4625 20.734 16.5935 20.6226 17.6213 20.1968C18.6492 19.7711 19.5277 19.0501 20.1458 18.1251C20.7638 17.2001 21.0937 16.1125 21.0938 15C21.0922 13.5086 20.4991 12.0788 19.4445 11.0242C18.39 9.96968 16.9601 9.37655 15.4688 9.375ZM15.4688 18.75C14.7271 18.75 14.002 18.5301 13.3854 18.118C12.7687 17.706 12.288 17.1203 12.0042 16.4351C11.7204 15.7498 11.6461 14.9958 11.7908 14.2684C11.9355 13.541 12.2927 12.8728 12.8171 12.3483C13.3415 11.8239 14.0097 11.4667 14.7372 11.3221C15.4646 11.1774 16.2186 11.2516 16.9038 11.5355C17.589 11.8193 18.1747 12.2999 18.5868 12.9166C18.9988 13.5333 19.2188 14.2583 19.2188 15C19.2188 15.9946 18.8237 16.9484 18.1204 17.6516C17.4171 18.3549 16.4633 18.75 15.4688 18.75ZM21.0938 2.8125H9.84375C8.10384 2.81436 6.43572 3.50636 5.20542 4.73667C3.97511 5.96697 3.28311 7.63509 3.28125 9.375V20.625C3.28311 22.3649 3.97511 24.033 5.20542 25.2633C6.43572 26.4936 8.10384 27.1856 9.84375 27.1875H21.0938C22.8337 27.1856 24.5018 26.4936 25.7321 25.2633C26.9624 24.033 27.6544 22.3649 27.6562 20.625V9.375C27.6544 7.63509 26.9624 5.96697 25.7321 4.73667C24.5018 3.50636 22.8337 2.81436 21.0938 2.8125ZM25.7812 20.625C25.7812 21.8682 25.2874 23.0605 24.4083 23.9396C23.5292 24.8186 22.337 25.3125 21.0938 25.3125H9.84375C8.60055 25.3125 7.40826 24.8186 6.52919 23.9396C5.65011 23.0605 5.15625 21.8682 5.15625 20.625V9.375C5.15625 8.1318 5.65011 6.93951 6.52919 6.06044C7.40826 5.18136 8.60055 4.6875 9.84375 4.6875H21.0938C22.337 4.6875 23.5292 5.18136 24.4083 6.06044C25.2874 6.93951 25.7812 8.1318 25.7812 9.375V20.625ZM22.9688 8.90625C22.9688 9.18438 22.8863 9.45626 22.7318 9.68752C22.5772 9.91878 22.3576 10.099 22.1006 10.2055C21.8437 10.3119 21.5609 10.3397 21.2882 10.2855C21.0154 10.2312 20.7648 10.0973 20.5681 9.90062C20.3715 9.70395 20.2375 9.45338 20.1833 9.1806C20.129 8.90781 20.1569 8.62506 20.2633 8.3681C20.3697 8.11114 20.55 7.89152 20.7812 7.737C21.0125 7.58247 21.2844 7.5 21.5625 7.5C21.9355 7.5 22.2931 7.64816 22.5569 7.91188C22.8206 8.1756 22.9688 8.53329 22.9688 8.90625Z" fill="black"/>
</svg>
