<svg width="32" height="32" viewBox="0 0 32 32" fill="none" xmlns="http://www.w3.org/2000/svg">
<path d="M13 26C13 26.2652 12.8946 26.5196 12.7071 26.7071C12.5196 26.8946 12.2652 27 12 27H6C5.73478 27 5.48043 26.8946 5.29289 26.7071C5.10536 26.5196 5 26.2652 5 26C5 25.7348 5.10536 25.4804 5.29289 25.2929C5.48043 25.1054 5.73478 25 6 25H12C12.2652 25 12.5196 25.1054 12.7071 25.2929C12.8946 25.4804 13 25.7348 13 26ZM9 22C9 21.7348 8.89464 21.4804 8.70711 21.2929C8.51957 21.1054 8.26522 21 8 21H4C3.73478 21 3.48043 21.1054 3.29289 21.2929C3.10536 21.4804 3 21.7348 3 22C3 22.2652 3.10536 22.5196 3.29289 22.7071C3.48043 22.8946 3.73478 23 4 23H8C8.26522 23 8.51957 22.8946 8.70711 22.7071C8.89464 22.5196 9 22.2652 9 22ZM32 24V25C32 25.5304 31.7893 26.0391 31.4142 26.4142C31.0391 26.7893 30.5304 27 30 27H18.4137C17.8865 27.001 17.3803 26.7929 17.0063 26.4213L3.5975 13.4275L3.58625 13.4163C3.21146 13.0412 3.00093 12.5327 3.00093 12.0025C3.00093 11.4723 3.21146 10.9638 3.58625 10.5887L11.5863 2.57375L11.605 2.55625C11.9816 2.19346 12.4859 1.99358 13.0088 1.9999C13.5317 2.00621 14.031 2.21821 14.3988 2.59L15.425 3.625C15.7761 3.97657 15.9837 4.44623 16.0075 4.9425C16.1487 7.8025 18.1325 9.73125 21.1712 9.97625C21.6691 10.019 22.1329 10.2466 22.4714 10.6142C22.8098 10.9818 22.9984 11.4628 23 11.9625V15C23 16.0609 23.4214 17.0783 24.1716 17.8284C24.9217 18.5786 25.9391 19 27 19C28.3261 19 29.5979 19.5268 30.5355 20.4645C31.4732 21.4021 32 22.6739 32 24ZM30 24C30 23.2044 29.6839 22.4413 29.1213 21.8787C28.5587 21.3161 27.7956 21 27 21C25.8217 21.0014 24.6693 20.6534 23.6887 20H20C19.7348 20 19.4804 19.8946 19.2929 19.7071C19.1054 19.5196 19 19.2652 19 19C19 18.7348 19.1054 18.4804 19.2929 18.2929C19.4804 18.1054 19.7348 18 20 18H21.8075C21.4486 17.3821 21.2039 16.7046 21.085 16H19C18.7348 16 18.4804 15.8946 18.2929 15.7071C18.1054 15.5196 18 15.2652 18 15C18 14.7348 18.1054 14.4804 18.2929 14.2929C18.4804 14.1054 18.7348 14 19 14H21V11.9625C19.0713 11.805 17.39 11.0875 16.14 9.8875C14.8412 8.6375 14.105 6.96125 14.015 5.03375L12.9838 4L5 12L18.4025 24.9875L18.4137 24.9975H30V24Z" fill="#343330"/>
</svg>
