<svg width="32" height="30" viewBox="0 0 32 30" fill="none" xmlns="http://www.w3.org/2000/svg">
<path d="M30.9917 16.5608C30.8838 16.6478 30.761 16.711 30.6304 16.747C30.4998 16.783 30.3638 16.791 30.2303 16.7705C30.0968 16.75 29.9684 16.7014 29.8523 16.6275C29.7363 16.5537 29.6349 16.456 29.554 16.34C28.9351 15.4457 28.1294 14.7201 27.2019 14.2216C26.2744 13.7231 25.251 13.4656 24.2141 13.4699C24.0121 13.4699 23.8147 13.4059 23.6464 13.2859C23.4782 13.1659 23.3465 12.9952 23.268 12.7952C23.2147 12.6594 23.1873 12.5135 23.1873 12.3661C23.1873 12.2187 23.2147 12.0727 23.268 11.9369C23.3465 11.7369 23.4782 11.5662 23.6464 11.4462C23.8147 11.3262 24.0121 11.2622 24.2141 11.2622C24.7903 11.2621 25.3549 11.0884 25.8438 10.7607C26.3328 10.433 26.7264 9.96442 26.98 9.40828C27.2336 8.85214 27.3371 8.23069 27.2786 7.61451C27.2202 6.99834 27.0021 6.41214 26.6493 5.92249C26.2964 5.43285 25.8229 5.0594 25.2824 4.84455C24.742 4.6297 24.1564 4.58207 23.5921 4.70707C23.0277 4.83207 22.5073 5.12469 22.0899 5.55169C21.6726 5.97868 21.3749 6.52295 21.2309 7.12265C21.1972 7.26308 21.1381 7.395 21.0569 7.51088C20.9758 7.62675 20.8742 7.72431 20.758 7.79799C20.6418 7.87166 20.5132 7.92001 20.3796 7.94027C20.246 7.96053 20.11 7.9523 19.9793 7.91606C19.8487 7.87982 19.726 7.81627 19.6182 7.72905C19.5104 7.64183 19.4196 7.53263 19.3511 7.40771C19.2826 7.28278 19.2376 7.14457 19.2187 7.00095C19.1999 6.85734 19.2075 6.71115 19.2413 6.57071C19.4412 5.7391 19.8189 4.96913 20.3444 4.32205C20.8699 3.67498 21.5286 3.16867 22.2681 2.84341C23.0077 2.51815 23.8076 2.38292 24.6044 2.44847C25.4011 2.51403 26.1726 2.77856 26.8574 3.22102C27.5423 3.66348 28.1217 4.27166 28.5494 4.99716C28.9771 5.72267 29.2415 6.54547 29.3213 7.40011C29.4012 8.25474 29.2944 9.11762 29.0094 9.92008C28.7245 10.7225 28.2692 11.4424 27.6799 12.0225C29.0763 12.6724 30.2901 13.7037 31.2009 15.014C31.2818 15.1302 31.3406 15.2625 31.3739 15.4032C31.4072 15.544 31.4143 15.6904 31.3948 15.834C31.3754 15.9777 31.3298 16.1159 31.2606 16.2406C31.1914 16.3653 31.1 16.4741 30.9917 16.5608ZM24.0754 25.0606C24.1497 25.1863 24.1996 25.3268 24.2221 25.4737C24.2446 25.6206 24.2392 25.7708 24.2062 25.9154C24.1733 26.06 24.1135 26.196 24.0304 26.3151C23.9473 26.4342 23.8426 26.534 23.7227 26.6085C23.6028 26.683 23.4701 26.7307 23.3326 26.7486C23.1952 26.7666 23.0557 26.7545 22.9227 26.713C22.7897 26.6715 22.6658 26.6015 22.5586 26.5073C22.4514 26.413 22.3631 26.2964 22.2989 26.1645C21.652 24.987 20.7307 24.0112 19.6259 23.3333C18.5211 22.6554 17.2709 22.2989 15.9988 22.2989C14.7267 22.2989 13.4765 22.6554 12.3717 23.3333C11.2669 24.0112 10.3456 24.987 9.69868 26.1645C9.63449 26.2964 9.54613 26.413 9.43892 26.5073C9.33172 26.6015 9.20789 26.6715 9.07487 26.713C8.94186 26.7545 8.80241 26.7666 8.66493 26.7486C8.52744 26.7307 8.39475 26.683 8.27484 26.6085C8.15493 26.534 8.05029 26.4342 7.96719 26.3151C7.8841 26.196 7.82428 26.06 7.79133 25.9154C7.75838 25.7708 7.75298 25.6206 7.77546 25.4737C7.79794 25.3268 7.84783 25.1863 7.92213 25.0606C8.91771 23.2218 10.4357 21.7748 12.2531 20.9321C11.2305 20.0905 10.4789 18.9255 10.1041 17.601C9.7292 16.2764 9.7499 14.8589 10.1633 13.5476C10.5766 12.2364 11.3618 11.0973 12.4085 10.2906C13.4552 9.48387 14.7108 9.05001 15.9988 9.05001C17.2867 9.05001 18.5423 9.48387 19.589 10.2906C20.6357 11.0973 21.421 12.2364 21.8343 13.5476C22.2477 14.8589 22.2684 16.2764 21.8935 17.601C21.5187 18.9255 20.7671 20.0905 19.7444 20.9321C21.5618 21.7748 23.0799 23.2218 24.0754 25.0606ZM15.9988 20.0932C16.8112 20.0932 17.6054 19.8342 18.2809 19.349C18.9564 18.8639 19.4829 18.1742 19.7938 17.3674C20.1047 16.5606 20.186 15.6728 20.0275 14.8163C19.869 13.9597 19.4778 13.173 18.9033 12.5555C18.3289 11.9379 17.5969 11.5174 16.8001 11.347C16.0033 11.1767 15.1774 11.2641 14.4269 11.5983C13.6763 11.9325 13.0348 12.4984 12.5834 13.2246C12.132 13.9507 11.8911 14.8044 11.8911 15.6777C11.8911 16.8487 12.3239 17.9718 13.0942 18.7999C13.8646 19.628 14.9094 20.0932 15.9988 20.0932ZM8.81041 12.3661C8.81041 12.0733 8.70221 11.7925 8.50963 11.5855C8.31705 11.3785 8.05585 11.2622 7.78349 11.2622C7.2073 11.2621 6.64268 11.0884 6.15375 10.7607C5.66481 10.433 5.27118 9.96442 5.01755 9.40828C4.76392 8.85214 4.66046 8.23069 4.71893 7.61451C4.7774 6.99834 4.99545 6.41214 5.34831 5.92249C5.70117 5.43285 6.17471 5.0594 6.71512 4.84455C7.25553 4.6297 7.84117 4.58207 8.4055 4.70707C8.96984 4.83207 9.49025 5.12469 9.90763 5.55169C10.325 5.97868 10.6226 6.52295 10.7667 7.12265C10.8348 7.40627 11.0049 7.64919 11.2396 7.79799C11.4743 7.94678 11.7544 7.98925 12.0182 7.91606C12.2821 7.84287 12.5081 7.66001 12.6465 7.40771C12.7849 7.15541 12.8244 6.85433 12.7563 6.57071C12.5564 5.7391 12.1786 4.96913 11.6532 4.32205C11.1277 3.67498 10.469 3.16867 9.72943 2.84341C8.98989 2.51815 8.18993 2.38292 7.39321 2.44847C6.5965 2.51403 5.82501 2.77856 5.14013 3.22102C4.45526 3.66348 3.8759 4.27166 3.44816 4.99716C3.02042 5.72267 2.7561 6.54547 2.67624 7.40011C2.59638 8.25474 2.70317 9.11762 2.98813 9.92008C3.27309 10.7225 3.72834 11.4424 4.31767 12.0225C2.92272 12.673 1.71023 13.7043 0.800498 15.014C0.636916 15.2482 0.566587 15.5427 0.604983 15.8326C0.643379 16.1226 0.787356 16.3843 1.00524 16.5601C1.22312 16.7359 1.49706 16.8115 1.7668 16.7703C2.03654 16.729 2.27997 16.5742 2.44356 16.34C3.06251 15.4457 3.86816 14.7201 4.79564 14.2216C5.72313 13.7231 6.74654 13.4656 7.78349 13.4699C8.05585 13.4699 8.31705 13.3536 8.50963 13.1466C8.70221 12.9396 8.81041 12.6588 8.81041 12.3661Z" fill="black"/>
</svg>
