<svg width="32" height="32" viewBox="0 0 32 32" fill="none" xmlns="http://www.w3.org/2000/svg">
<path d="M28.7913 17.6325C28.4642 17.3805 28.0894 17.1977 27.6894 17.0951C27.2895 16.9926 26.8729 16.9726 26.465 17.0362C28.8125 14.6662 30 12.31 30 10C30 6.69125 27.3387 4 24.0675 4C23.1995 3.99454 22.3408 4.17915 21.5518 4.54085C20.7627 4.90256 20.0624 5.43259 19.5 6.09375C18.9376 5.43259 18.2373 4.90256 17.4482 4.54085C16.6592 4.17915 15.8005 3.99454 14.9325 4C11.6613 4 9 6.69125 9 10C9 11.375 9.405 12.7112 10.2575 14.125C9.5593 14.3019 8.92211 14.6648 8.41375 15.175L5.58625 18H2C1.46957 18 0.960859 18.2107 0.585786 18.5858C0.210714 18.9609 0 19.4696 0 20L0 25C0 25.5304 0.210714 26.0391 0.585786 26.4142C0.960859 26.7893 1.46957 27 2 27H15C15.0818 27 15.1632 26.99 15.2425 26.97L23.2425 24.97C23.2935 24.9579 23.3433 24.9411 23.3913 24.92L28.25 22.8525L28.305 22.8275C28.772 22.5942 29.1718 22.2458 29.4669 21.8152C29.7621 21.3846 29.9427 20.886 29.9918 20.3663C30.041 19.8466 29.957 19.3229 29.7478 18.8447C29.5387 18.3664 29.2112 17.9492 28.7962 17.6325H28.7913ZM14.9325 6C15.707 5.98866 16.4673 6.20859 17.1162 6.63166C17.765 7.05473 18.273 7.66171 18.575 8.375C18.6503 8.55841 18.7785 8.71528 18.9432 8.82568C19.1079 8.93608 19.3017 8.99503 19.5 8.99503C19.6983 8.99503 19.8921 8.93608 20.0568 8.82568C20.2215 8.71528 20.3497 8.55841 20.425 8.375C20.727 7.66171 21.235 7.05473 21.8838 6.63166C22.5327 6.20859 23.293 5.98866 24.0675 6C26.1987 6 28 7.83125 28 10C28 12.4387 26.0262 15.1975 22.2925 17.9875L20.9062 18.3062C21.0279 17.7922 21.0317 17.2574 20.9172 16.7417C20.8028 16.226 20.5731 15.7429 20.2454 15.3287C19.9177 14.9144 19.5005 14.5796 19.0251 14.3495C18.5496 14.1194 18.0282 13.9999 17.5 14H12.585C11.5063 12.545 11 11.265 11 10C11 7.83125 12.8013 6 14.9325 6ZM2 20H5V25H2V20ZM27.4287 21.0262L22.6787 23.0487L14.875 25H7V19.4137L9.82875 16.5862C10.0138 16.3997 10.2341 16.2518 10.4768 16.1512C10.7195 16.0506 10.9798 15.9992 11.2425 16H17.5C17.8978 16 18.2794 16.158 18.5607 16.4393C18.842 16.7206 19 17.1022 19 17.5C19 17.8978 18.842 18.2794 18.5607 18.5607C18.2794 18.842 17.8978 19 17.5 19H14C13.7348 19 13.4804 19.1054 13.2929 19.2929C13.1054 19.4804 13 19.7348 13 20C13 20.2652 13.1054 20.5196 13.2929 20.7071C13.4804 20.8946 13.7348 21 14 21H18C18.0753 20.9998 18.1503 20.9914 18.2237 20.975L26.5987 19.0487L26.6375 19.0387C26.8932 18.9678 27.166 18.9939 27.4036 19.112C27.6412 19.2301 27.8267 19.4319 27.9245 19.6786C28.0222 19.9253 28.0253 20.1994 27.9331 20.4482C27.8409 20.6969 27.6599 20.9028 27.425 21.0262H27.4287Z" fill="#343330"/>
</svg>
