<svg width="30" height="30" viewBox="0 0 30 30" fill="none" xmlns="http://www.w3.org/2000/svg">
<path d="M20.3906 3.75023C19.3745 3.74763 18.368 3.94649 17.4293 4.33531C16.4905 4.72412 15.6382 5.29518 14.9215 6.01546L14.5312 6.4057L14.141 6.01546C13.0593 4.93374 11.6812 4.19708 10.1808 3.89863C8.68049 3.60018 7.12533 3.75335 5.71203 4.33876C4.29873 4.92418 3.09077 5.91554 2.24091 7.1875C1.39105 8.45945 0.937456 9.95485 0.9375 11.4846C0.9375 19.9619 13.3371 26.7354 13.8645 27.0201C14.0694 27.1305 14.2985 27.1883 14.5312 27.1883C14.764 27.1883 14.9931 27.1305 15.198 27.0201C15.7254 26.7354 28.125 19.9619 28.125 11.4846C28.1225 9.43408 27.3069 7.46825 25.8569 6.01831C24.407 4.56837 22.4411 3.75271 20.3906 3.75023ZM19.7473 20.433C18.1152 21.818 16.3704 23.0645 14.5312 24.1596C12.6921 23.0645 10.9473 21.818 9.31523 20.433C6.77578 18.2545 3.75 14.9323 3.75 11.4846C3.74993 10.5111 4.03855 9.55943 4.57937 8.74997C5.12019 7.94051 5.88891 7.3096 6.78831 6.93705C7.68771 6.56449 8.67739 6.46702 9.63218 6.65696C10.587 6.8469 11.464 7.31572 12.1523 8.00413L12.5391 8.39437L11.6578 9.27562C11.5267 9.40626 11.4227 9.5615 11.3517 9.73243C11.2807 9.90337 11.2442 10.0866 11.2442 10.2717C11.2442 10.4568 11.2807 10.6401 11.3517 10.811C11.4227 10.9819 11.5267 11.1372 11.6578 11.2678L14.2008 13.8108L12.5953 15.4151C12.3311 15.6793 12.1827 16.0376 12.1827 16.4112C12.1827 16.7848 12.3311 17.1431 12.5953 17.4073C12.8595 17.6714 13.2178 17.8199 13.5914 17.8199C13.965 17.8199 14.3233 17.6714 14.5875 17.4073L17.1867 14.8069C17.3178 14.6762 17.4218 14.521 17.4928 14.35C17.5638 14.1791 17.6003 13.9959 17.6003 13.8108C17.6003 13.6257 17.5638 13.4424 17.4928 13.2715C17.4218 13.1006 17.3178 12.9453 17.1867 12.8147L14.6484 10.2694L16.9102 8.00413C17.5985 7.31572 18.4755 6.8469 19.4303 6.65696C20.3851 6.46702 21.3748 6.56449 22.2742 6.93705C23.1736 7.3096 23.9423 7.94051 24.4831 8.74997C25.0239 9.55943 25.3126 10.5111 25.3125 11.4846C25.3125 14.9323 22.2867 18.2545 19.7473 20.433Z" fill="black"/>
</svg>
