<svg width="30" height="30" viewBox="0 0 30 30" fill="none" xmlns="http://www.w3.org/2000/svg">
<path d="M19.7452 23.3801C20.0093 23.6443 20.1577 24.0026 20.1577 24.3762C20.1577 24.7498 20.0093 25.1081 19.7452 25.3723C19.481 25.6365 19.1227 25.7849 18.7491 25.7849C18.3755 25.7849 18.0171 25.6365 17.753 25.3723L8.37796 15.9973C8.24686 15.8667 8.14284 15.7114 8.07187 15.5405C8.00089 15.3696 7.96436 15.1863 7.96436 15.0012C7.96436 14.8161 8.00089 14.6329 8.07187 14.4619C8.14284 14.291 8.24686 14.1358 8.37796 14.0051L17.753 4.63012C18.0171 4.36594 18.3755 4.21753 18.7491 4.21753C19.1227 4.21753 19.481 4.36594 19.7452 4.63012C20.0093 4.89431 20.1577 5.25261 20.1577 5.62622C20.1577 5.99983 20.0093 6.35813 19.7452 6.62231L11.3674 15L19.7452 23.3801Z" fill="black"/>
</svg>
