<svg width="30" height="30" viewBox="0 0 30 30" fill="none" xmlns="http://www.w3.org/2000/svg">
<mask id="mask0_355_9940" style="mask-type:alpha" maskUnits="userSpaceOnUse" x="0" y="0" width="30" height="30">
<rect width="30" height="30" fill="#D9D9D9"/>
</mask>
<g mask="url(#mask0_355_9940)">
<path d="M15 27.5C12.7917 27.5 10.9896 27.151 9.59375 26.4531C8.19792 25.7552 7.5 24.8542 7.5 23.75C7.5 23.0208 7.80208 22.3854 8.40625 21.8438C9.01042 21.3021 9.84375 20.875 10.9063 20.5625L11.625 22.9375C11.2708 23.0417 10.9479 23.1719 10.6562 23.3281C10.3646 23.4844 10.1667 23.625 10.0625 23.75C10.3333 24.0833 10.9583 24.375 11.9375 24.625C12.9167 24.875 13.9375 25 15 25C16.0625 25 17.0885 24.875 18.0781 24.625C19.0677 24.375 19.6979 24.0833 19.9688 23.75C19.8646 23.625 19.6667 23.4844 19.375 23.3281C19.0833 23.1719 18.7604 23.0417 18.4062 22.9375L19.125 20.5625C20.1875 20.875 21.0156 21.3021 21.6094 21.8438C22.2031 22.3854 22.5 23.0208 22.5 23.75C22.5 24.8542 21.8021 25.7552 20.4062 26.4531C19.0104 27.151 17.2083 27.5 15 27.5ZM15 19.1562C15.375 18.4688 15.7708 17.8385 16.1875 17.2656C16.6042 16.6927 17.0104 16.1458 17.4062 15.625C18.1771 14.625 18.7917 13.724 19.25 12.9219C19.7083 12.1198 19.9375 11.125 19.9375 9.9375C19.9375 8.5625 19.4583 7.39583 18.5 6.4375C17.5417 5.47917 16.375 5 15 5C13.625 5 12.4583 5.47917 11.5 6.4375C10.5417 7.39583 10.0625 8.5625 10.0625 9.9375C10.0625 11.125 10.2917 12.1198 10.75 12.9219C11.2083 13.724 11.8229 14.625 12.5938 15.625C12.9896 16.1458 13.3958 16.6927 13.8125 17.2656C14.2292 17.8385 14.625 18.4688 15 19.1562ZM15 23.75C14.7708 23.75 14.5625 23.6823 14.375 23.5469C14.1875 23.4115 14.0521 23.2292 13.9688 23C13.4896 21.5208 12.8854 20.2812 12.1562 19.2812C11.4271 18.2812 10.7188 17.3229 10.0312 16.4062C9.36458 15.4896 8.78646 14.5417 8.29688 13.5625C7.80729 12.5833 7.5625 11.375 7.5625 9.9375C7.5625 7.85417 8.28125 6.09375 9.71875 4.65625C11.1562 3.21875 12.9167 2.5 15 2.5C17.0833 2.5 18.8438 3.21875 20.2812 4.65625C21.7188 6.09375 22.4375 7.85417 22.4375 9.9375C22.4375 11.375 22.1979 12.5833 21.7188 13.5625C21.2396 14.5417 20.6562 15.4896 19.9688 16.4062C19.3021 17.3229 18.599 18.2812 17.8594 19.2812C17.1198 20.2812 16.5104 21.5208 16.0312 23C15.9479 23.2292 15.8125 23.4115 15.625 23.5469C15.4375 23.6823 15.2292 23.75 15 23.75ZM15 12.5938C15.7292 12.5938 16.3542 12.3333 16.875 11.8125C17.3958 11.2917 17.6562 10.6667 17.6562 9.9375C17.6562 9.20833 17.3958 8.58333 16.875 8.0625C16.3542 7.54167 15.7292 7.28125 15 7.28125C14.2708 7.28125 13.6458 7.54167 13.125 8.0625C12.6042 8.58333 12.3438 9.20833 12.3438 9.9375C12.3438 10.6667 12.6042 11.2917 13.125 11.8125C13.6458 12.3333 14.2708 12.5938 15 12.5938Z" fill="black"/>
</g>
</svg>
