<svg width="48" height="68" viewBox="0 0 48 68" fill="none" xmlns="http://www.w3.org/2000/svg">
<path d="M23.7499 56.6427C24.9999 54.2709 26.3995 51.9699 27.9486 49.7396C29.4978 47.5093 31.0523 45.3792 32.6122 43.3493C35.235 39.9358 37.3304 36.8455 38.8982 34.0784C40.4661 31.3114 41.25 27.8685 41.25 23.7499C41.25 18.8995 39.5459 14.7702 36.1378 11.362C32.7296 7.95386 28.6003 6.2498 23.7499 6.2498C18.8995 6.2498 14.7702 7.95386 11.362 11.362C7.95385 14.7702 6.24979 18.8995 6.24979 23.7499C6.24979 27.8685 7.04042 31.3114 8.62167 34.0784C10.2028 36.8455 12.2915 39.9358 14.8876 43.3493C16.4475 45.3792 18.002 47.5093 19.5511 49.7396C21.1003 51.9699 22.4999 54.2709 23.7499 56.6427Z" fill="#DC2626"/>
<path d="M27.9 31.7H17.08C15.96 31.7 15.34 31.06 15.34 30.12C15.34 29.18 15.96 28.54 17.08 28.54H29.46C31.96 28.54 32.42 29.22 32.42 31.62V35.52H28.38V32.18C28.38 31.88 28.22 31.7 27.9 31.7ZM26.04 27.38H15.76C14.82 27.38 14.28 26.62 14.28 25.9C14.28 25.18 14.74 24.5 15.76 24.5H16.12V22.82C16.12 21.64 16.92 21.14 18.02 21.14C19.12 21.14 19.92 21.64 19.92 22.82V24.5H21.56V22.82C21.56 21.64 22.36 21.14 23.46 21.14C24.56 21.14 25.36 21.64 25.36 22.82V24.5H26.04C27.06 24.5 27.52 25.18 27.52 25.9C27.52 26.62 26.98 27.38 26.04 27.38ZM28.28 27.76V18.72C28.28 17.42 29.24 16.74 30.3 16.74C31.34 16.74 32.32 17.44 32.32 18.72V27.76H28.28ZM25.36 20.44H16.02C15.08 20.44 14.54 19.64 14.54 18.88C14.54 18.12 15 17.32 16.02 17.32H25.36C26.38 17.32 26.84 18.12 26.84 18.88C26.84 19.64 26.3 20.44 25.36 20.44Z" fill="white"/>
</svg>
