<svg width="30" height="30" viewBox="0 0 30 30" fill="none" xmlns="http://www.w3.org/2000/svg">
<mask id="mask0_355_9969" style="mask-type:alpha" maskUnits="userSpaceOnUse" x="0" y="0" width="30" height="30">
<rect width="30" height="30" fill="#D9D9D9"/>
</mask>
<g mask="url(#mask0_355_9969)">
<path d="M8.75 2.5H21.25V12.3125C21.25 12.7917 21.1458 13.2188 20.9375 13.5938C20.7292 13.9688 20.4375 14.2708 20.0625 14.5L15.625 17.125L16.5 20H21.25L17.375 22.75L18.875 27.5L15 24.5625L11.125 27.5L12.625 22.75L8.75 20H13.5L14.375 17.125L9.9375 14.5C9.5625 14.2708 9.27083 13.9688 9.0625 13.5938C8.85417 13.2188 8.75 12.7917 8.75 12.3125V2.5ZM11.25 5V12.3125L13.75 13.8125V5H11.25ZM18.75 5H16.25V13.8125L18.75 12.3125V5Z" fill="black"/>
</g>
</svg>
