<svg width="30" height="30" viewBox="0 0 30 30" fill="none" xmlns="http://www.w3.org/2000/svg">
<path d="M28.5484 13.2342H26.5923L28.9258 6.25944C29.0587 5.82905 29.0479 5.35264 28.8957 4.93177C28.7436 4.5109 28.462 4.17886 28.1111 4.00643C27.7603 3.834 27.3678 3.83483 27.0174 4.00872C26.6671 4.18262 26.3865 4.51584 26.2355 4.93734L23.4532 13.2386H19.1226L16.3403 4.93734C16.2317 4.61222 16.0457 4.33385 15.8061 4.13785C15.5664 3.94186 15.2841 3.83716 14.9952 3.83716C14.7062 3.83716 14.4239 3.94186 14.1843 4.13785C13.9446 4.33385 13.7586 4.61222 13.65 4.93734L10.8774 13.2342H6.54194L3.75968 4.93294C3.60869 4.51143 3.3281 4.17821 2.97772 4.00432C2.62734 3.83042 2.23488 3.8296 1.88401 4.00202C1.53314 4.17445 1.2516 4.50649 1.09942 4.92736C0.947242 5.34823 0.936452 5.82464 1.06935 6.25503L3.40766 13.2342H1.45161C1.06662 13.2342 0.697398 13.4199 0.425168 13.7505C0.152937 14.0811 0 14.5295 0 14.997C0 15.4645 0.152937 15.9129 0.425168 16.2435C0.697398 16.5741 1.06662 16.7598 1.45161 16.7598H4.5871L7.36935 25.0626C7.47795 25.3877 7.66398 25.6661 7.90361 25.862C8.14325 26.058 8.4256 26.1627 8.71452 26.1627C9.00344 26.1627 9.28578 26.058 9.52542 25.862C9.76505 25.6661 9.95108 25.3877 10.0597 25.0626L12.8419 16.7598H17.1774L19.9597 25.0626C20.0683 25.3877 20.2543 25.6661 20.4939 25.862C20.7336 26.058 21.0159 26.1627 21.3048 26.1627C21.5938 26.1627 21.8761 26.058 22.1157 25.862C22.3554 25.6661 22.5414 25.3877 22.65 25.0626L25.4323 16.7598H28.5484C28.9334 16.7598 29.3026 16.5741 29.5748 16.2435C29.8471 15.9129 30 15.4645 30 14.997C30 14.5295 29.8471 14.0811 29.5748 13.7505C29.3026 13.4199 28.9334 13.2342 28.5484 13.2342ZM8.70968 19.7154L7.72137 16.7598H9.69798L8.70968 19.7154ZM14.0117 13.2342L15 10.2801L15.9883 13.2342H14.0117ZM21.2903 19.7154L20.302 16.7598H22.2786L21.2903 19.7154Z" fill="black"/>
</svg>
