<svg width="32" height="32" viewBox="0 0 32 32" fill="none" xmlns="http://www.w3.org/2000/svg">
<path d="M28.415 3.58509C28.1635 3.33375 27.8496 3.15401 27.5055 3.06436C27.1614 2.97472 26.7997 2.97842 26.4575 3.07509H26.4388L2.44625 10.3551C2.0557 10.4674 1.70862 10.696 1.45125 11.0105C1.19387 11.325 1.03841 11.7105 1.00556 12.1155C0.972712 12.5206 1.06403 12.926 1.26737 13.2779C1.4707 13.6297 1.7764 13.9113 2.14375 14.0851L12.8463 19.1538L17.915 29.8563C18.075 30.1991 18.3298 30.4889 18.6492 30.6915C18.9685 30.8942 19.3392 31.0013 19.7175 31.0001C19.775 31.0001 19.8325 30.9976 19.89 30.9926C20.2936 30.9599 20.6776 30.8046 20.9904 30.5474C21.3032 30.2902 21.5299 29.9435 21.64 29.5538L28.915 5.56134C28.915 5.55509 28.915 5.54884 28.915 5.54259C29.0129 5.20129 29.0182 4.84008 28.9303 4.49606C28.8425 4.15204 28.6646 3.83762 28.415 3.58509ZM19.7288 28.9813L19.7225 28.9988L14.8025 18.6126L20.7075 12.7063C20.8871 12.5173 20.9858 12.2655 20.9824 12.0048C20.9791 11.744 20.874 11.4949 20.6896 11.3105C20.5052 11.1261 20.2561 11.021 19.9953 11.0176C19.7346 11.0143 19.4828 11.113 19.2938 11.2926L13.3875 17.1976L3 12.2776H3.0175L27 5.00009L19.7288 28.9813Z" fill="#343330"/>
</svg>
