<svg width="30" height="30" viewBox="0 0 30 30" fill="none" xmlns="http://www.w3.org/2000/svg">
<mask id="mask0_355_9980" style="mask-type:alpha" maskUnits="userSpaceOnUse" x="0" y="0" width="30" height="30">
<rect width="30" height="30" fill="#D9D9D9"/>
</mask>
<g mask="url(#mask0_355_9980)">
<path d="M14.0625 20.9374H15.9374V15.9374H20.9374V14.0625H15.9374V9.0625H14.0625V14.0625H9.0625V15.9374H14.0625V20.9374ZM15.0021 26.8749C13.3596 26.8749 11.8159 26.5633 10.3707 25.9399C8.9255 25.3166 7.6684 24.4707 6.59938 23.4021C5.53033 22.3336 4.68401 21.077 4.06041 19.6325C3.4368 18.1879 3.125 16.6445 3.125 15.0021C3.125 13.3596 3.43667 11.8159 4.06 10.3707C4.68333 8.9255 5.52927 7.6684 6.59781 6.59938C7.66638 5.53034 8.92293 4.68401 10.3675 4.06041C11.812 3.4368 13.3555 3.125 14.9979 3.125C16.6403 3.125 18.1841 3.43667 19.6293 4.06C21.0744 4.68333 22.3315 5.52927 23.4006 6.59781C24.4696 7.66638 25.3159 8.92293 25.9395 10.3675C26.5631 11.812 26.8749 13.3555 26.8749 14.9979C26.8749 16.6403 26.5633 18.1841 25.9399 19.6293C25.3166 21.0744 24.4707 22.3315 23.4021 23.4006C22.3336 24.4696 21.077 25.3159 19.6325 25.9395C18.1879 26.5631 16.6445 26.8749 15.0021 26.8749ZM15 25C17.7916 25 20.1562 24.0312 22.0937 22.0937C24.0312 20.1562 25 17.7916 25 15C25 12.2083 24.0312 9.84372 22.0937 7.90622C20.1562 5.96872 17.7916 4.99997 15 4.99997C12.2083 4.99997 9.84372 5.96872 7.90622 7.90622C5.96872 9.84372 4.99997 12.2083 4.99997 15C4.99997 17.7916 5.96872 20.1562 7.90622 22.0937C9.84372 24.0312 12.2083 25 15 25Z" fill="black"/>
</g>
</svg>
