<svg width="23" height="26" viewBox="0 0 23 26" fill="none" xmlns="http://www.w3.org/2000/svg">
<path fill-rule="evenodd" clip-rule="evenodd" d="M10.7818 1.71088C9.259 1.77675 7.77368 2.15224 6.41178 2.81561C4.71946 3.63592 3.26193 4.87507 2.16638 6.42489C1.07076 7.97477 0.370444 9.78822 0.126489 11.707C-0.117478 13.6258 0.102442 15.5916 0.766858 17.4329C1.43132 19.2741 2.52019 20.9349 3.93838 22.2702C5.35671 23.6055 7.06119 24.5747 8.90321 25.0934C10.7453 25.6121 12.6689 25.6644 14.5061 25.2457C16.3434 24.8271 18.0384 23.9502 19.4433 22.6916C20.8483 21.433 21.9204 19.831 22.5662 18.0254C22.6094 17.9041 22.6287 17.7746 22.6229 17.6441C22.617 17.5136 22.5862 17.3849 22.5322 17.265C22.4782 17.1452 22.402 17.0366 22.308 16.9457C22.214 16.8548 22.104 16.7831 21.9844 16.7349C21.8647 16.6866 21.7377 16.6627 21.6106 16.6646C21.4835 16.6664 21.3588 16.6939 21.2436 16.7455C21.1284 16.7972 21.025 16.8719 20.9393 16.9655C20.8535 17.059 20.7871 17.1695 20.7438 17.2908C20.0958 19.103 18.935 20.6622 17.4065 21.7734C15.878 22.8846 14.0495 23.4988 12.1497 23.5389C10.2498 23.5791 8.36269 23.0436 6.72412 21.9993C5.08558 20.9549 3.76829 19.4483 2.9368 17.6673C2.10541 15.8863 1.79659 13.9101 2.0492 11.9857C2.30174 10.0612 3.10437 8.27383 4.35684 6.84679C5.60922 5.4198 7.25595 4.41643 9.09113 3.96213C10.9264 3.50779 12.8687 3.62269 14.6754 4.29238C16.0004 4.79274 17.2015 5.31276 18.4325 5.88633L15.9473 7.08889C15.718 7.19983 15.544 7.401 15.4636 7.64832C15.3832 7.89554 15.4029 8.1686 15.5184 8.40732C15.634 8.64605 15.8358 8.83088 16.0796 8.92131C16.3234 9.01165 16.5892 9.00013 16.8184 8.8892L21.1405 6.79779C21.3698 6.68686 21.5437 6.48559 21.6242 6.23837C21.7046 5.99106 21.6849 5.71808 21.5694 5.47936L19.3915 0.978576C19.276 0.739837 19.0741 0.554953 18.8303 0.464578C18.5865 0.374208 18.3208 0.385767 18.0915 0.496703C17.8622 0.60764 17.6883 0.80886 17.6078 1.05612C17.5274 1.30337 17.5471 1.5764 17.6626 1.81514L18.6427 3.8405C17.5531 3.33873 16.4696 2.87985 15.2833 2.43182C13.8346 1.89003 12.3046 1.64499 10.7818 1.71088Z" fill="#F87171"/>
</svg>
