<svg width="30" height="30" viewBox="0 0 30 30" fill="none" xmlns="http://www.w3.org/2000/svg">
<path d="M8.84957 6.15479C8.58539 5.89061 8.43698 5.5323 8.43698 5.1587C8.43698 4.78509 8.58539 4.42678 8.84957 4.1626C9.11375 3.89842 9.47206 3.75 9.84567 3.75C10.2193 3.75 10.5776 3.89842 10.8418 4.1626L20.2168 13.5376C20.3479 13.6682 20.4519 13.8235 20.5229 13.9944C20.5938 14.1654 20.6304 14.3486 20.6304 14.5337C20.6304 14.7188 20.5938 14.902 20.5229 15.073C20.4519 15.2439 20.3479 15.3991 20.2168 15.5298L10.8418 24.9048C10.5776 25.169 10.2193 25.3174 9.84567 25.3174C9.47206 25.3174 9.11375 25.169 8.84957 24.9048C8.58539 24.6406 8.43698 24.2823 8.43698 23.9087C8.43698 23.5351 8.58539 23.1768 8.84957 22.9126L17.2273 14.5349L8.84957 6.15479Z" fill="black"/>
</svg>
