<svg width="32" height="32" viewBox="0 0 32 32" fill="none" xmlns="http://www.w3.org/2000/svg">
<path d="M29.9 12.1612C29.7789 11.788 29.5506 11.4586 29.2437 11.2141C28.9367 10.9696 28.5646 10.8208 28.1737 10.7862L20.75 10.1462L17.84 3.22624C17.6885 2.86314 17.4329 2.55298 17.1055 2.33482C16.7781 2.11665 16.3934 2.00024 16 2.00024C15.6066 2.00024 15.2219 2.11665 14.8945 2.33482C14.5671 2.55298 14.3115 2.86314 14.16 3.22624L11.2588 10.1462L3.82625 10.79C3.43379 10.823 3.05981 10.9711 2.7512 11.2158C2.44258 11.4604 2.21308 11.7908 2.09147 12.1654C1.96985 12.54 1.96154 12.9421 2.06757 13.3214C2.1736 13.7007 2.38926 14.0403 2.6875 14.2975L8.32625 19.225L6.63625 26.5425C6.54689 26.9254 6.57239 27.3262 6.70956 27.6947C6.84673 28.0632 7.0895 28.3831 7.40749 28.6144C7.72549 28.8457 8.10462 28.9782 8.49747 28.9951C8.89032 29.0121 9.27946 28.913 9.61625 28.71L15.9913 24.835L22.38 28.71C22.7168 28.913 23.1059 29.0121 23.4988 28.9951C23.8916 28.9782 24.2708 28.8457 24.5888 28.6144C24.9068 28.3831 25.1495 28.0632 25.2867 27.6947C25.4239 27.3262 25.4494 26.9254 25.36 26.5425L23.6712 19.2175L29.3087 14.2975C29.607 14.0394 29.8222 13.6989 29.9274 13.3188C30.0326 12.9387 30.0231 12.5359 29.9 12.1612ZM27.9975 12.7862L22.36 17.7062C22.0856 17.9449 21.8815 18.2539 21.7696 18.5999C21.6577 18.9459 21.6423 19.3159 21.725 19.67L23.4188 27L17.035 23.125C16.7235 22.9353 16.3659 22.835 16.0012 22.835C15.6366 22.835 15.279 22.9353 14.9675 23.125L8.5925 27L10.275 19.675C10.3577 19.3209 10.3423 18.9509 10.2304 18.6049C10.1185 18.2589 9.91437 17.9499 9.64 17.7112L4 12.7937C3.99954 12.79 3.99954 12.7862 4 12.7825L11.43 12.14C11.7928 12.108 12.1399 11.9776 12.434 11.7628C12.728 11.5481 12.9579 11.2571 13.0988 10.9212L16 4.00999L18.9 10.9212C19.0408 11.2571 19.2707 11.5481 19.5648 11.7628C19.8589 11.9776 20.206 12.108 20.5687 12.14L28 12.7825C28 12.7825 28 12.79 28 12.7912L27.9975 12.7862Z" fill="#343330"/>
</svg>
