<svg width="12" height="12" viewBox="0 0 12 12" fill="none" xmlns="http://www.w3.org/2000/svg">
<mask id="mask0_6_3" style="mask-type:alpha" maskUnits="userSpaceOnUse" x="-1" y="-1" width="14" height="14">
<rect x="-1" y="-1" width="14" height="14" fill="#D9D9D9"/>
</mask>
<g mask="url(#mask0_6_3)">
<path d="M6.00033 8.91699C6.1656 8.91699 6.30414 8.86109 6.41595 8.74928C6.52776 8.63748 6.58366 8.49894 6.58366 8.33366C6.58366 8.16838 6.52776 8.02984 6.41595 7.91803C6.30414 7.80623 6.1656 7.75033 6.00033 7.75033C5.83505 7.75033 5.69651 7.80623 5.5847 7.91803C5.4729 8.02984 5.41699 8.16838 5.41699 8.33366C5.41699 8.49894 5.4729 8.63748 5.5847 8.74928C5.69651 8.86109 5.83505 8.91699 6.00033 8.91699ZM5.41699 6.58366H6.58366V3.08366H5.41699V6.58366ZM6.00033 11.8337C5.19338 11.8337 4.43505 11.6805 3.72533 11.3743C3.0156 11.068 2.39824 10.6524 1.87324 10.1274C1.34824 9.60241 0.932617 8.98505 0.626367 8.27533C0.320117 7.5656 0.166992 6.80727 0.166992 6.00033C0.166992 5.19338 0.320117 4.43505 0.626367 3.72533C0.932617 3.0156 1.34824 2.39824 1.87324 1.87324C2.39824 1.34824 3.0156 0.932617 3.72533 0.626367C4.43505 0.320117 5.19338 0.166992 6.00033 0.166992C6.80727 0.166992 7.5656 0.320117 8.27533 0.626367C8.98505 0.932617 9.60241 1.34824 10.1274 1.87324C10.6524 2.39824 11.068 3.0156 11.3743 3.72533C11.6805 4.43505 11.8337 5.19338 11.8337 6.00033C11.8337 6.80727 11.6805 7.5656 11.3743 8.27533C11.068 8.98505 10.6524 9.60241 10.1274 10.1274C9.60241 10.6524 8.98505 11.068 8.27533 11.3743C7.5656 11.6805 6.80727 11.8337 6.00033 11.8337ZM6.00033 10.667C7.3031 10.667 8.40658 10.2149 9.31074 9.31074C10.2149 8.40658 10.667 7.3031 10.667 6.00033C10.667 4.69755 10.2149 3.59408 9.31074 2.68991C8.40658 1.78574 7.3031 1.33366 6.00033 1.33366C4.69755 1.33366 3.59408 1.78574 2.68991 2.68991C1.78574 3.59408 1.33366 4.69755 1.33366 6.00033C1.33366 7.3031 1.78574 8.40658 2.68991 9.31074C3.59408 10.2149 4.69755 10.667 6.00033 10.667Z" fill="#9CA3AF"/>
</g>
</svg>
