<svg width="30" height="30" viewBox="0 0 30 30" fill="none" xmlns="http://www.w3.org/2000/svg">
<mask id="mask0_355_9960" style="mask-type:alpha" maskUnits="userSpaceOnUse" x="0" y="0" width="30" height="30">
<rect width="30" height="30" fill="#D9D9D9"/>
</mask>
<g mask="url(#mask0_355_9960)">
<path d="M13.75 23.75C11.6667 23.75 9.89583 23.0208 8.4375 21.5625C6.97917 20.1042 6.25 18.3333 6.25 16.25C6.25 16.0208 6.26042 15.7917 6.28125 15.5625C6.30208 15.3333 6.33333 15.1042 6.375 14.875C6.27083 14.9167 6.14583 14.9479 6 14.9688C5.85417 14.9896 5.72917 15 5.625 15C4.75 15 4.01042 14.6979 3.40625 14.0938C2.80208 13.4896 2.5 12.75 2.5 11.875C2.5 11 2.78646 10.2604 3.35938 9.65625C3.93229 9.05208 4.65625 8.75 5.53125 8.75C6.21875 8.75 6.83854 8.94271 7.39062 9.32812C7.94271 9.71354 8.33333 10.2083 8.5625 10.8125C9.25 10.1875 10.0365 9.6875 10.9219 9.3125C11.8073 8.9375 12.75 8.75 13.75 8.75H27.5V13.75H21.25V16.25C21.25 18.3333 20.5208 20.1042 19.0625 21.5625C17.6042 23.0208 15.8333 23.75 13.75 23.75ZM5.625 13.125C5.97917 13.125 6.27604 13.0052 6.51562 12.7656C6.75521 12.526 6.875 12.2292 6.875 11.875C6.875 11.5208 6.75521 11.224 6.51562 10.9844C6.27604 10.7448 5.97917 10.625 5.625 10.625C5.27083 10.625 4.97396 10.7448 4.73438 10.9844C4.49479 11.224 4.375 11.5208 4.375 11.875C4.375 12.2292 4.49479 12.526 4.73438 12.7656C4.97396 13.0052 5.27083 13.125 5.625 13.125ZM13.75 20.625C14.9583 20.625 15.9896 20.1979 16.8438 19.3438C17.6979 18.4896 18.125 17.4583 18.125 16.25C18.125 15.0417 17.6979 14.0104 16.8438 13.1562C15.9896 12.3021 14.9583 11.875 13.75 11.875C12.5417 11.875 11.5104 12.3021 10.6562 13.1562C9.80208 14.0104 9.375 15.0417 9.375 16.25C9.375 17.4583 9.80208 18.4896 10.6562 19.3438C11.5104 20.1979 12.5417 20.625 13.75 20.625ZM13.75 18.75C14.4375 18.75 15.026 18.5052 15.5156 18.0156C16.0052 17.526 16.25 16.9375 16.25 16.25C16.25 15.5625 16.0052 14.974 15.5156 14.4844C15.026 13.9948 14.4375 13.75 13.75 13.75C13.0625 13.75 12.474 13.9948 11.9844 14.4844C11.4948 14.974 11.25 15.5625 11.25 16.25C11.25 16.9375 11.4948 17.526 11.9844 18.0156C12.474 18.5052 13.0625 18.75 13.75 18.75Z" fill="black"/>
</g>
</svg>
